HIERARCHY
ROOT Hips
{
	OFFSET 0.00000 0.00000 0.00000
	CHANNELS 6 Xposition Yposition Zposition Zrotation Yrotation Xrotation 
	JOINT LHipJoint
	{
		OFFSET 0 0 0
		CHANNELS 3 Zrotation Yrotation Xrotation
		JOINT LeftHip
		{
			OFFSET 1.61024 -1.73873 0.75100
			CHANNELS 3 Zrotation Yrotation Xrotation
			JOINT LeftKnee
			{
				OFFSET 2.29819 -6.31424 0.00000
				CHANNELS 3 Zrotation Yrotation Xrotation
				JOINT LeftAnkle
				{
					OFFSET 2.76618 -7.60002 0.00000
					CHANNELS 3 Zrotation Yrotation Xrotation
					JOINT LeftToe
					{
						OFFSET 0.16838 -0.46263 2.02361
						CHANNELS 3 Zrotation Yrotation Xrotation
						End Site
						{
							OFFSET 0.00000 -0.00000 1.04662
						}
					}
				}
			}
		}
	}
	JOINT RHipJoint
	{
		OFFSET 0 0 0
		CHANNELS 3 Zrotation Yrotation Xrotation
		JOINT RightHip
		{
			OFFSET -1.46153 -1.73873 0.75100
			CHANNELS 3 Zrotation Yrotation Xrotation
			JOINT RightKnee
			{
				OFFSET -2.38373 -6.54924 0.00000
				CHANNELS 3 Zrotation Yrotation Xrotation
				JOINT RightAnkle
				{
					OFFSET -2.80314 -7.70157 0.00000
					CHANNELS 3 Zrotation Yrotation Xrotation
					JOINT RightToe
					{
						OFFSET -0.16142 -0.44349 2.02101
						CHANNELS 3 Zrotation Yrotation Xrotation
						End Site
						{
							OFFSET -0.00000 -0.00000 1.04381
						}
					}
				}
			}
		}
	}
	JOINT lowerback
	{
		OFFSET 0 0 0
		CHANNELS 3 Zrotation Yrotation Xrotation
		JOINT Chest
		{
			OFFSET -0.01629 1.66985 0.14750
			CHANNELS 3 Zrotation Yrotation Xrotation
			JOINT Chest2
			{
				OFFSET 0.02086 1.62378 0.20980
				CHANNELS 3 Zrotation Yrotation Xrotation
				JOINT lowerneck
				{
					OFFSET 0 0 0
					CHANNELS 3 Zrotation Yrotation Xrotation
					JOINT Neck
					{
						OFFSET -0.05690 1.78719 0.08702
						CHANNELS 3 Zrotation Yrotation Xrotation
						JOINT Head
						{
							OFFSET 0.16035 1.73871 -0.38470
							CHANNELS 3 Zrotation Yrotation Xrotation
							End Site
							{
								OFFSET 0.05645 1.80914 -0.14081
							}
						}
					}
				}
				JOINT LeftCollar
				{
					OFFSET 0 0 0
					CHANNELS 3 Zrotation Yrotation Xrotation
					JOINT LeftShoulder
					{
						OFFSET 2.83089 1.66494 -0.46008
CHANNELS 3 Zrotation Xrotation Yrotation
						JOINT LeftElbow
						{
OFFSET 0 -5.548930 -0.000000
CHANNELS 3 Zrotation Xrotation Yrotation
							JOINT LeftWrist
							{
OFFSET 0 -3.028980 -0.000000
CHANNELS 3 Zrotation Xrotation Yrotation
								JOINT lhand
								{
									OFFSET 0 0 0
CHANNELS 3 Zrotation Xrotation Yrotation
									JOINT LFingers
									{
OFFSET 0 -0.640950 -0.000000
CHANNELS 3 Zrotation Xrotation Yrotation
										End Site
										{
OFFSET 0 -0.516750 -0.000000
										}
									}
								}
								JOINT LThumb
								{
OFFSET 0 0.000000 0.000000
CHANNELS 3 Zrotation Xrotation Yrotation
									End Site
									{
OFFSET 0 -0.524640 0.524640
									}
								}
							}
						}
					}
				}
				JOINT RightCollar
				{
					OFFSET 0 0 0
					CHANNELS 3 Zrotation Yrotation Xrotation
					JOINT RightShoulder
					{
						OFFSET -2.84442 1.45761 -0.18088
CHANNELS 3 Zrotation Xrotation Yrotation
						JOINT RightElbow
						{
OFFSET 0 -5.351900 -0.000000
CHANNELS 3 Zrotation Xrotation Yrotation
							JOINT RightWrist
							{
OFFSET 0 -3.025310 -0.000000
CHANNELS 3 Zrotation Xrotation Yrotation
								JOINT rhand
								{
									OFFSET 0 0 0
CHANNELS 3 Zrotation Xrotation Yrotation
									JOINT RFingers
									{
OFFSET 0 -0.783890 -0.000000
CHANNELS 3 Zrotation Xrotation Yrotation
										End Site
										{
OFFSET 0 -0.631990 -0.000000
										}
									}
								}
								JOINT RThumb
								{
OFFSET 0 0.000000 0.000000
CHANNELS 3 Zrotation Xrotation Yrotation
									End Site
									{
OFFSET 0 -0.641640 0.641640
									}
								}
							}
						}
					}
				}
			}
		}
	}
}
MOTION
Frames: 12
Frame Time: 0.008333333333333333
0.505200 17.710400 1.410500 -175.676000 80.792900 -167.213000 0.000000 0.000000 0.000000 -12.696000 -13.089500 4.152200 0.000000 0.000000 0.000000 -0.096700 9.236500 -11.258700 1.438000 -7.581500 -21.450000 0.000000 0.000000 0.000000 21.040100 10.053800 -4.235200 -0.782300 -5.646600 15.762400 -0.344100 -12.851600 -22.033100 -0.785500 5.658000 -15.795300 6.734000 0.796100 -14.176900 3.226900 2.941800 -17.981100 -0.232500 1.735100 -11.931000 -3.369100 -6.299500 -10.096100 11.820200 -11.157800 34.866800 3.956500 -2.946200 14.688700 0.000000 0.000000 0.000000 40.785300 16.561300 -76.430300 124.521600 -54.979500 89.392600 -15.513300 -65.183600 -23.959200 0.000000 0.000000 0.000000 -7.125000 0.000000 0.000000 -42.746500 48.982500 5.052700 0.000000 0.000000 0.000000 -36.603100 14.757000 76.929200 -123.290400 -55.367400 -88.381900 13.762500 -43.541300 -11.723500 0.000000 0.000000 0.000000 7.125000 0.000000 -0.000000 27.575400 18.376500 19.927200
0.480618 17.697974 1.487256 -171.652548 80.400029 -164.292718 0.000000 0.000000 0.000000 -11.869650 -13.074969 5.184241 0.000000 0.000000 0.000000 -0.109722 9.349794 -11.161785 1.527878 -7.804473 -22.121827 0.000000 0.000000 0.000000 22.297158 9.703966 -2.829050 -0.716382 -5.409004 15.078877 -0.284517 -13.206003 -21.867833 -0.703177 5.359622 -14.937236 7.678119 0.918124 -14.538912 3.667806 3.137546 -18.122165 -0.246695 1.786349 -11.942309 -2.889792 -6.205707 -10.186951 11.549056 -11.025419 34.410568 3.744870 -2.888609 14.422068 0.000000 0.000000 0.000000 41.333550 6.328776 -84.492095 117.545265 -56.929336 83.609015 -22.341115 -71.654870 -24.997831 0.000000 0.000000 0.000000 -7.125000 0.000000 0.000000 -48.860080 48.687923 5.729539 0.000000 0.000000 0.000000 -36.408133 0.975223 86.951473 -113.497137 -57.807376 -80.199319 18.967631 -44.134247 -12.432941 0.000000 0.000000 0.000000 7.125000 0.000000 0.000000 30.441369 17.382520 23.572890
0.472339 17.693378 1.560964 -172.562840 79.848618 -165.474589 0.000000 0.000000 0.000000 -11.721988 -13.625129 5.407153 0.000000 0.000000 0.000000 -0.132365 9.534262 -10.970040 1.655476 -8.108146 -23.042995 0.000000 0.000000 0.000000 22.537857 9.282667 -2.793512 -0.738396 -5.489435 15.309858 -0.330524 -13.093478 -22.182735 -0.622073 5.047302 -14.043580 7.645951 0.574915 -14.545836 4.265807 2.729171 -18.007043 0.413049 1.648415 -11.855208 -1.531366 -5.448701 -10.661972 11.180152 -10.099511 34.468700 3.488767 -2.339890 14.350751 0.000000 0.000000 0.000000 44.122139 7.304535 -85.027309 118.673220 -56.653165 84.552706 -21.653775 -71.703523 -24.798570 0.000000 0.000000 0.000000 -7.125000 0.000000 0.000000 -48.186336 48.650413 5.550489 0.000000 0.000000 0.000000 -39.306345 -0.906157 86.553145 -115.263862 -57.444924 -81.691430 19.224124 -44.018720 -12.961214 0.000000 0.000000 0.000000 7.125000 0.000000 0.000000 30.472850 16.881540 24.015097
0.479357 17.710668 1.618086 -173.655179 78.208332 -165.757938 0.000000 0.000000 0.000000 -11.177984 -15.545563 4.458104 0.000000 0.000000 0.000000 -0.194812 9.894599 -10.113843 1.879933 -8.611410 -24.587173 0.000000 0.000000 0.000000 22.808141 9.019272 -2.997996 -0.637960 -5.109943 14.222537 -0.271565 -13.795249 -22.451907 -0.481482 4.449548 -12.344881 7.536616 0.390719 -14.426071 4.629849 2.573690 -17.964358 0.861196 1.636111 -11.901523 0.058054 -4.341190 -10.797414 10.888766 -8.647589 34.088634 3.284312 -1.560384 13.975960 0.000000 0.000000 0.000000 46.841446 17.062557 -81.744223 124.113886 -55.109852 89.058291 -16.821100 -69.541393 -25.110641 0.000000 0.000000 0.000000 -7.125000 0.000000 0.000000 -44.642996 49.665433 6.263843 0.000000 0.000000 0.000000 -45.538306 10.392224 80.290505 -128.160257 -53.710015 -92.349391 12.538288 -42.557155 -12.018382 0.000000 0.000000 0.000000 7.125000 0.000000 0.000000 26.783040 18.162961 19.338559
0.466992 17.728386 1.645213 -174.629765 76.259296 -164.762651 0.000000 0.000000 0.000000 -10.259421 -18.005716 2.247479 0.000000 0.000000 0.000000 -0.238721 10.223382 -9.605675 2.144872 -9.161426 -26.301704 0.000000 0.000000 0.000000 22.774361 9.052205 -5.281573 -0.646001 -5.141740 14.313354 -0.246254 -14.421235 -22.979648 -0.403373 4.077250 -11.294103 7.914523 0.848906 -13.887298 4.557599 3.249827 -17.876250 0.578329 1.933730 -12.072647 -0.186945 -3.505073 -11.087933 11.567084 -7.427362 31.998065 3.651276 -1.140729 13.062794 0.000000 0.000000 0.000000 46.454398 31.675794 -74.525108 131.498294 -52.372699 95.017418 -13.326734 -66.170101 -25.224940 0.000000 0.000000 0.000000 -7.125000 0.000000 0.000000 -41.862866 50.321848 6.494671 0.000000 0.000000 0.000000 -48.026504 31.077868 72.021891 -140.464780 -47.790817 -101.905297 7.011986 -40.587725 -13.624944 0.000000 0.000000 0.000000 7.125000 0.000000 0.000000 23.111929 16.818535 16.879447
0.472109 17.742930 1.662596 -176.520905 73.268233 -164.978457 0.000000 0.000000 0.000000 -9.457484 -21.450770 0.506761 0.000000 0.000000 0.000000 -0.279750 10.584794 -9.226859 2.024536 -8.916262 -25.534315 0.000000 0.000000 0.000000 22.685563 8.583437 -6.849254 -0.610629 -5.001674 13.913297 -0.172093 -15.594517 -23.778217 -0.343472 3.765451 -10.417786 7.375077 0.901934 -13.434657 4.365511 3.412217 -17.781358 0.642537 2.076963 -12.187585 0.288550 -2.938127 -10.896881 10.877206 -6.372050 30.471803 3.351038 -0.836877 12.243917 0.000000 0.000000 0.000000 42.871509 43.245476 -64.589815 135.748262 -50.396552 98.339243 -14.518490 -64.523336 -24.026901 0.000000 0.000000 0.000000 -7.125000 0.000000 0.000000 -41.985092 49.191096 5.177109 0.000000 0.000000 0.000000 -40.354420 49.552610 59.292397 -145.555896 -44.411060 -105.577032 5.608298 -39.435618 -14.161519 0.000000 0.000000 0.000000 7.125000 0.000000 0.000000 22.156790 16.324872 16.315719
0.365483 17.759281 1.680404 -175.920382 70.679345 -163.417661 0.000000 0.000000 0.000000 -8.002638 -24.291629 -1.113349 0.000000 0.000000 0.000000 -0.337091 11.001626 -8.382308 2.044739 -8.958570 -25.665907 0.000000 0.000000 0.000000 23.238110 8.829766 -7.785512 -0.554918 -4.771745 13.258706 0.052570 -17.400250 -24.182002 -0.269643 3.339219 -9.224679 7.093968 0.755779 -12.384438 4.338558 3.374354 -17.802072 0.718537 2.085725 -12.819976 0.531016 -2.622212 -10.641023 10.404027 -5.751787 29.909681 3.179854 -0.638666 11.889131 0.000000 0.000000 0.000000 41.755109 41.157649 -65.330040 134.879139 -50.827320 97.667532 -14.986480 -65.435633 -24.328131 0.000000 0.000000 0.000000 -7.125000 0.000000 0.000000 -42.581625 49.353498 5.478184 0.000000 0.000000 0.000000 -34.309808 47.548376 56.303533 -144.310878 -45.297583 -104.698820 4.423417 -38.394563 -14.126460 0.000000 0.000000 0.000000 7.125000 0.000000 0.000000 21.408978 16.353786 15.659362
0.260395 17.784704 1.681522 -174.614442 69.473557 -161.058619 0.000000 0.000000 0.000000 -6.538108 -25.652570 -2.949176 0.000000 0.000000 0.000000 -0.386527 11.440538 -7.797937 1.915511 -8.687440 -24.822654 0.000000 0.000000 0.000000 23.601860 10.118758 -8.619662 -0.501034 -4.537638 12.594316 0.218337 -18.722401 -24.621951 -0.156267 2.547192 -7.020592 6.114062 1.014866 -11.970445 3.922925 3.797535 -17.899263 0.775930 2.386346 -13.151007 0.235146 -2.497929 -11.024973 10.343982 -5.480566 29.299913 3.212855 -0.599788 11.710317 0.000000 0.000000 0.000000 41.049812 29.631965 -69.844173 130.629594 -52.737924 94.327657 -16.979391 -66.766965 -24.631885 0.000000 0.000000 0.000000 -7.125000 0.000000 0.000000 -44.414037 49.272264 5.712788 0.000000 0.000000 0.000000 -34.307793 33.176559 62.137345 -137.490778 -49.486584 -99.672668 7.777503 -38.873946 -15.322795 0.000000 0.000000 0.000000 7.125000 0.000000 0.000000 23.358159 15.240206 17.981449
0.214043 17.790943 1.622253 -174.069299 68.275664 -159.979117 0.000000 0.000000 0.000000 -5.825513 -27.415892 -5.191068 0.021274 0.938203 2.578823 -0.358318 11.272245 -8.423767 1.998762 -8.863395 -25.369039 0.000000 0.000000 0.000000 23.787237 9.739486 -8.867508 -0.430746 -4.211883 11.673419 0.341421 -19.341328 -24.458797 -0.167962 2.640234 -7.278569 4.612446 1.112740 -10.672322 2.714145 4.040458 -18.409077 0.172867 2.568839 -14.500888 0.064892 -2.487584 -11.639700 10.782245 -5.556589 28.899366 3.381530 -0.607153 11.707686 0.000000 0.000000 0.000000 38.623899 19.646223 -74.933230 124.760661 -54.901436 89.588160 -19.454893 -68.375662 -26.021668 0.000000 0.000000 0.000000 -7.125000 0.000000 0.000000 -47.443472 49.922235 7.213109 0.000000 0.000000 0.000000 -34.002255 19.740217 70.546172 -128.444925 -53.602750 -92.578715 14.365771 -43.683987 -12.016515 0.000000 0.000000 0.000000 7.125000 0.000000 0.000000 27.879280 18.078483 20.430316
0.249681 17.790313 1.503053 -173.658957 66.739051 -158.715501 0.000000 0.000000 0.000000 -5.045194 -29.605063 -7.806752 0.105725 2.096422 5.772218 -0.293825 10.973760 -9.787968 2.140316 -9.152470 -26.273324 0.000000 0.000000 0.000000 23.975259 9.618421 -8.653471 -0.328223 -3.681963 10.183517 0.560758 -20.698070 -24.673475 -0.171669 2.669055 -7.358723 2.131329 1.222132 -10.564801 1.404531 4.122262 -18.529098 0.058427 2.826157 -14.688454 -0.769657 -2.786868 -12.241791 11.364033 -5.934968 27.654084 3.636819 -0.872534 11.416976 0.000000 0.000000 0.000000 36.179833 13.716106 -77.975736 121.597321 -55.869074 86.984593 -20.373965 -68.749144 -25.513950 0.000000 0.000000 0.000000 -7.125000 0.000000 0.000000 -47.761412 49.391857 6.536744 0.000000 0.000000 0.000000 -34.034219 14.930798 75.037503 -124.467018 -54.997056 -89.347909 13.594987 -42.031630 -13.233979 0.000000 0.000000 0.000000 7.125000 0.000000 0.000000 27.199047 17.008001 20.527476
0.337339 17.783675 1.342410 -173.030810 65.234923 -157.333090 0.000000 0.000000 0.000000 -4.117742 -31.583183 -10.058074 0.234736 3.117467 8.605958 -0.218308 10.629089 -11.035813 2.222085 -9.314050 -26.782853 0.000000 0.000000 0.000000 24.507836 8.144248 -8.085385 -0.199081 -2.872368 7.923760 0.548761 -20.625473 -24.660582 -0.111953 2.156958 -5.939755 -0.473739 1.130257 -9.819449 0.039899 3.879158 -18.524095 -0.074990 2.919036 -15.144547 -1.678574 -2.861626 -12.340140 12.027064 -5.946985 26.535214 3.990869 -0.967400 11.057865 0.000000 0.000000 0.000000 37.031717 15.046582 -76.221581 122.217772 -55.689339 87.497555 -21.588830 -68.303703 -25.628519 0.000000 0.000000 0.000000 -7.125000 0.000000 0.000000 -48.787097 49.277717 6.588136 0.000000 0.000000 0.000000 -35.268715 18.875576 74.302928 -125.875487 -54.529102 -90.498268 12.521794 -42.091002 -14.108176 0.000000 0.000000 0.000000 7.125000 0.000000 0.000000 26.411645 16.253705 20.267534
0.468504 17.774366 1.102084 -173.327758 64.291208 -156.800038 0.000000 0.000000 0.000000 -4.299553 -32.482010 -11.658251 0.366648 3.889152 10.765155 -0.088679 9.603562 -12.036626 2.183652 -9.238485 -26.544293 0.000000 0.000000 0.000000 24.239066 6.081471 -6.718363 -0.064377 -1.635013 4.498128 0.537817 -20.154664 -23.953565 -0.064484 1.637225 -4.504138 -3.556649 1.274619 -8.955634 -1.602485 3.840160 -18.248235 -0.259201 3.138285 -15.387537 -2.136613 -3.240844 -12.231376 12.236497 -6.378995 25.760510 4.056777 -1.236042 10.803350 0.000000 0.000000 0.000000 39.765583 21.111127 -72.263673 126.296598 -54.383856 90.840926 -21.658105 -68.150923 -26.382967 0.000000 0.000000 0.000000 -7.125000 0.000000 0.000000 -49.447836 49.821754 7.539252 0.000000 0.000000 0.000000 -35.914821 29.936637 68.753349 -129.987054 -53.000387 -93.815446 13.384701 -40.136827 -14.732940 0.000000 0.000000 0.000000 7.125000 0.000000 0.000000 26.816880 15.647543 21.073052
